<svg width="1600" height="980" viewBox="0 0 1600 980" fill="none" xmlns="http://www.w3.org/2000/svg">
  <rect width="1600" height="980" fill="#F9F6F0"/>
  <rect x="52" y="52" width="1496" height="876" stroke="rgba(20,18,16,0.14)" stroke-width="2"/>
  <path d="M0 188H1600" stroke="rgba(20,18,16,0.08)" stroke-width="1"/>
  <path d="M0 492H1600" stroke="rgba(20,18,16,0.08)" stroke-width="1"/>
  <path d="M0 796H1600" stroke="rgba(20,18,16,0.08)" stroke-width="1"/>
  <path d="M240 0V980" stroke="rgba(20,18,16,0.06)" stroke-width="1"/>
  <path d="M560 0V980" stroke="rgba(20,18,16,0.06)" stroke-width="1"/>
  <path d="M880 0V980" stroke="rgba(20,18,16,0.06)" stroke-width="1"/>
  <path d="M1200 0V980" stroke="rgba(20,18,16,0.06)" stroke-width="1"/>
  <rect x="930" y="142" width="430" height="250" fill="#1A3A2E"/>
  <rect x="962" y="174" width="366" height="186" stroke="#B8892A" stroke-width="2"/>
  <path d="M244 810C244 730.471 308.471 666 388 666H400C479.529 666 544 730.471 544 810V874H244V810Z" fill="rgba(26,58,46,0.18)"/>
  <circle cx="396" cy="612" r="68" fill="rgba(184,137,42,0.46)"/>
  <path d="M624 826C624 756.412 680.412 700 750 700H758C827.588 700 884 756.412 884 826V882H624V826Z" fill="rgba(26,58,46,0.18)"/>
  <circle cx="754" cy="650" r="58" fill="rgba(20,18,16,0.16)"/>
  <path d="M1010 844C1010 776.621 1064.62 722 1132 722H1140C1207.38 722 1262 776.621 1262 844V892H1010V844Z" fill="rgba(26,58,46,0.18)"/>
  <circle cx="1136" cy="676" r="54" fill="rgba(20,18,16,0.16)"/>
  <path d="M392 522C392 415.372 478.372 329 585 329H597C703.628 329 790 415.372 790 522V622H392V522Z" fill="rgba(184,137,42,0.22)"/>
  <circle cx="592" cy="270" r="90" fill="rgba(184,137,42,0.52)"/>
  <rect x="822" y="500" width="24" height="176" fill="#B8892A"/>
  <circle cx="834" cy="472" r="32" fill="#B8892A"/>
  <text x="96" y="126" fill="#141210" fill-opacity="0.76" font-family="Cormorant Garamond, serif" font-size="44" font-style="italic">Workshop / facilitation placeholder</text>
  <text x="96" y="916" fill="#1A3A2E" font-family="DM Sans, sans-serif" font-size="22" letter-spacing="5">REPLACE WITH TEAM OR FACILITATION IMAGE</text>
</svg>
